<?xml version="1.0" encoding="utf-8"?>
<!-- Generator: Adobe Illustrator 19.1.0, SVG Export Plug-In . SVG Version: 6.00 Build 0)  -->
<!DOCTYPE svg PUBLIC "-//W3C//DTD SVG 1.1//EN" "http://www.w3.org/Graphics/SVG/1.1/DTD/svg11.dtd">
<svg version="1.1" id="Layer_1" xmlns="http://www.w3.org/2000/svg" xmlns:xlink="http://www.w3.org/1999/xlink" x="0px" y="0px"
	 viewBox="-599 376 79.1 49" style="enable-background:new -599 376 79.1 49;" xml:space="preserve">
<style type="text/css">
	.st0{fill:#F17833;stroke:#FFFFFF;}
	.st1{fill:none;stroke:#FFFFFF;stroke-width:1.875;}
	.st2{fill:#FFFFFF;}
</style>
<g transform="translate(-400.4375,-622.15625)">
	<path class="st0" d="M-198.1,998.6h78.1v48h-78.1V998.6z"/>
	<path class="st1" d="M-198.1,1037.5h78.1"/>
	<path class="st1" d="M-120.4,1029.3h-40.7c-1.1,0-2.6,0.5-3.6,1.4l-3.2,3h-7.5c0,0-7.8-0.9-9.6-7.5l13.4-15.8
		c1.4-1.7,4.2-2.4,5.2-2.4h45.9"/>
	<path class="st2" d="M-165.2,1014.6h45.2v4.4h-48.9L-165.2,1014.6z"/>
	<path class="st2" d="M-175,1014.6h6.1l-3.7,4.4h-6L-175,1014.6z"/>
	<path class="st1" d="M-120.2,1032.4h-40.2c-0.9,0-3.4,0.4-3.4,2.3s2.1,2.3,3.4,2.3h40.3"/>
</g>
</svg>
