<?xml version="1.0" encoding="UTF-8" standalone="no"?>
<svg viewBox="0 0 79.125 49" xmlns="http://www.w3.org/2000/svg">
<g transform="translate(-400.4375,-622.15625)">
<path d="m400.93742,622.64787h78.12506v48.00009h-78.12506z" fill="#2c5aa0" stroke="#fff"/>
<path d="m400.93742,661.45878h78.12506" fill="none" stroke="#fff" stroke-width="1.875"/>
<path d="m478.60062,653.25033h-40.70844c-1.05973,0-2.60109.45447-3.56365,1.41409l-3.18477,3.01633h-7.48471c0,0-7.82852-.90894-9.58967-7.46168l13.3893-15.77547c1.3661-1.69125 4.21035-2.41253 5.22893-2.41253h45.87357" fill="none" stroke="#fff" stroke-width="1.875"/>
<path d="m433.80955,638.58342h45.23306v4.40702h-48.88768z" fill="#fff"/>
<path d="m424.02794,638.58342h6.0507l-3.68389,4.40702h-6.03381z" fill="#fff"/>
<path d="m478.8357,656.36025h-40.21893c-.90384,0-3.37421.35432-3.37421,2.30003s2.13533,2.30073 3.37421,2.30073h40.32648" fill="none" stroke="#fff" stroke-width="1.875"/>
</g>
</svg>
